<svg width="64" height="64" viewBox="0 0 64 64" fill="none" xmlns="http://www.w3.org/2000/svg">
<path d="M33.34 44.36C30.484 44.36 28.204 43.292 26.5 41.156C24.82 38.996 23.98 35.744 23.98 31.4C23.98 28.496 24.364 26.072 25.132 24.128C25.924 22.184 26.992 20.756 28.336 19.844C29.704 18.908 31.252 18.44 32.98 18.44C34.684 18.44 36.232 18.776 37.624 19.448C38.296 19.76 38.848 20.084 39.28 20.42L38.02 22.58H37.66C37.3 22.316 36.892 22.052 36.436 21.788C35.38 21.236 34.348 20.96 33.34 20.96C29.5 20.96 27.58 24.44 27.58 31.4C27.58 35.144 28.108 37.82 29.164 39.428C30.244 41.036 31.756 41.84 33.7 41.84C34.132 41.84 34.54 41.792 34.924 41.696C35.332 41.576 35.656 41.456 35.896 41.336C36.16 41.216 36.328 41.144 36.4 41.12V32.84H32.26V30.32H38.92L40 31.4V42.38C39.52 42.764 38.932 43.1 38.236 43.388C36.844 44.036 35.212 44.36 33.34 44.36Z" fill="#5096E9"/>
</svg>
